<svg width="800" height="600" viewBox="0 0 800 600" fill="none" xmlns="http://www.w3.org/2000/svg">
  <!-- Background with subtle texture -->
  <rect width="800" height="600" fill="url(#bgGradient)"/>
  
  <!-- Gradient definitions -->
  <defs>
    <!-- Claude-inspired background gradient -->
    <linearGradient id="bgGradient" x1="0%" y1="0%" x2="100%" y2="100%">
      <stop offset="0%" style="stop-color:#F5F3F0"/>
      <stop offset="50%" style="stop-color:#F2F0ED"/>
      <stop offset="100%" style="stop-color:#EFEAE5"/>
    </linearGradient>
    
    <!-- Terracotta accent gradient -->
    <linearGradient id="warmGradient" x1="0%" y1="0%" x2="100%" y2="100%">
      <stop offset="0%" style="stop-color:#D97757"/>
      <stop offset="50%" style="stop-color:#E08B70"/>
      <stop offset="100%" style="stop-color:#E69F88"/>
    </linearGradient>
    
    <!-- Navy blue gradient -->
    <linearGradient id="softBlue" x1="0%" y1="0%" x2="100%" y2="100%">
      <stop offset="0%" style="stop-color:#1E2D50"/>
      <stop offset="100%" style="stop-color:#2A3B61"/>
    </linearGradient>
    
    <!-- Gentle pattern -->
    <pattern id="softTexture" patternUnits="userSpaceOnUse" width="20" height="20">
      <circle cx="10" cy="10" r="1" fill="#ffffff" opacity="0.1"/>
    </pattern>
  </defs>
  
  <!-- Abstract flowing shapes -->
  <g opacity="0.7">
    <!-- Large flowing shape - represents growth/progress -->
    <path d="M150 400 Q350 250 550 350 Q650 400 700 300 Q750 250 780 350 L780 600 L150 600 Z" 
          fill="url(#warmGradient)" opacity="0.6"/>
    
    <!-- Secondary flowing shape -->
    <path d="M50 500 Q200 400 400 450 Q500 480 600 420 Q700 360 800 400 L800 600 L50 600 Z" 
          fill="url(#softBlue)" opacity="0.5"/>
  </g>
  
  <!-- Floating abstract elements representing data/insights -->
  <g opacity="0.8">
    <!-- Main central element - like a gentle sun representing care -->
    <circle cx="400" cy="200" r="60" fill="url(#warmGradient)" opacity="0.4"/>
    <circle cx="400" cy="200" r="40" fill="url(#warmGradient)" opacity="0.3"/>
    <circle cx="400" cy="200" r="20" fill="url(#warmGradient)" opacity="0.5"/>
    
    <!-- Floating gentle shapes - representing data points/measurements -->
    <ellipse cx="200" cy="150" rx="25" ry="35" fill="url(#softBlue)" opacity="0.4" transform="rotate(15 200 150)"/>
    <ellipse cx="600" cy="250" rx="30" ry="20" fill="url(#warmGradient)" opacity="0.4" transform="rotate(-20 600 250)"/>
    <ellipse cx="150" cy="300" rx="20" ry="30" fill="url(#softBlue)" opacity="0.3" transform="rotate(45 150 300)"/>
    <ellipse cx="650" cy="150" rx="35" ry="25" fill="url(#warmGradient)" opacity="0.3" transform="rotate(-30 650 150)"/>
  </g>
  
  <!-- Subtle connecting lines - representing connections/tracking -->
  <g stroke="#D97757" stroke-width="2" fill="none" opacity="0.3">
    <path d="M200 150 Q300 120 400 140" stroke-dasharray="5,5"/>
    <path d="M400 260 Q500 240 600 250" stroke-dasharray="3,7"/>
    <path d="M150 300 Q250 280 350 290" stroke-dasharray="8,4"/>
  </g>
  
  <!-- Minimalist human silhouette representing care -->
  <g transform="translate(320, 320)" opacity="0.6">
    <!-- Simple figure -->
    <circle cx="20" cy="15" r="12" fill="url(#warmGradient)" opacity="0.5"/>
    <path d="M20 27 Q15 35 10 50 Q12 65 15 75 Q20 85 25 75 Q28 65 30 50 Q25 35 20 27 Z" 
          fill="url(#warmGradient)" opacity="0.5"/>
    <!-- Arms reaching toward floating element -->
    <path d="M8 40 Q5 35 15 30" stroke="url(#warmGradient)" stroke-width="3" fill="none" opacity="0.5"/>
    <path d="M32 40 Q40 35 45 25" stroke="url(#warmGradient)" stroke-width="3" fill="none" opacity="0.5"/>
  </g>
  
  <!-- Small puppy silhouette -->
  <g transform="translate(480, 380)" opacity="0.6">
    <ellipse cx="15" cy="20" rx="12" ry="8" fill="url(#softBlue)" opacity="0.5"/>
    <circle cx="10" cy="15" r="6" fill="url(#softBlue)" opacity="0.5"/>
    <circle cx="6" cy="12" r="2" fill="url(#softBlue)" opacity="0.7"/>
    <!-- Tail -->
    <path d="M25 18 Q35 15 30 25" stroke="url(#softBlue)" stroke-width="3" fill="none" opacity="0.5"/>
  </g>
  
  <!-- Subtle texture overlay -->
  <rect width="800" height="600" fill="url(#softTexture)"/>
  
  <!-- Gentle light rays emanating from center -->
  <g stroke="url(#warmGradient)" stroke-width="1" fill="none" opacity="0.15">
    <path d="M400 200 L380 120"/>
    <path d="M400 200 L450 130"/>
    <path d="M400 200 L480 180"/>
    <path d="M400 200 L460 270"/>
    <path d="M400 200 L350 280"/>
    <path d="M400 200 L320 180"/>
  </g>
</svg>